<svg width="20" height="22" viewBox="0 0 20 22" fill="none" xmlns="http://www.w3.org/2000/svg">
<path d="M5.80166 14.245C5.63093 14.4168 5.5351 14.6491 5.5351 14.8913C5.5351 15.1334 5.63093 15.3658 5.80166 15.5375C5.88687 15.6234 5.98826 15.6916 6.09996 15.7382C6.21166 15.7847 6.33148 15.8087 6.45249 15.8087C6.5735 15.8087 6.69331 15.7847 6.80502 15.7382C6.91672 15.6916 7.01811 15.6234 7.10332 15.5375C7.27405 15.3658 7.36988 15.1334 7.36988 14.8913C7.36988 14.6491 7.27405 14.4168 7.10332 14.245C7.01811 14.1591 6.91672 14.0909 6.80502 14.0444C6.69331 13.9978 6.5735 13.9739 6.45249 13.9739C6.33148 13.9739 6.21166 13.9978 6.09996 14.0444C5.98826 14.0909 5.88687 14.1591 5.80166 14.245ZM5.80166 6.46253C5.63093 6.63427 5.5351 6.86661 5.5351 7.10878C5.5351 7.35095 5.63093 7.58328 5.80166 7.75503C5.88687 7.84094 5.98826 7.90914 6.09996 7.95568C6.21166 8.00221 6.33148 8.02617 6.45249 8.02617C6.5735 8.02617 6.69331 8.00221 6.80502 7.95568C6.91672 7.90914 7.01811 7.84094 7.10332 7.75503C7.27405 7.58328 7.36988 7.35095 7.36988 7.10878C7.36988 6.86661 7.27405 6.63427 7.10332 6.46253C7.01811 6.37661 6.91672 6.30841 6.80502 6.26187C6.69331 6.21534 6.5735 6.19138 6.45249 6.19138C6.33148 6.19138 6.21166 6.21534 6.09996 6.26187C5.98826 6.30841 5.88687 6.37661 5.80166 6.46253ZM10.3392 15.6292C10.1579 15.6292 9.98063 15.683 9.82988 15.7837C9.67914 15.8844 9.56165 16.0276 9.49227 16.1951C9.42288 16.3626 9.40473 16.5469 9.4401 16.7247C9.47547 16.9025 9.56278 17.0658 9.69097 17.194C9.81917 17.3222 9.98251 17.4095 10.1603 17.4449C10.3381 17.4803 10.5224 17.4621 10.6899 17.3927C10.8574 17.3234 11.0006 17.2059 11.1013 17.0551C11.2021 16.9044 11.2558 16.7272 11.2558 16.5459C11.262 16.4217 11.2429 16.2975 11.1997 16.181C11.1564 16.0644 11.0898 15.9579 11.0041 15.8678C10.9183 15.7778 10.8152 15.7062 10.7009 15.6572C10.5866 15.6083 10.4635 15.5832 10.3392 15.5834V15.6292ZM4.83916 10.1292C4.65786 10.1292 4.48063 10.183 4.32988 10.2837C4.17914 10.3844 4.06165 10.5276 3.99227 10.6951C3.92289 10.8626 3.90473 11.0469 3.9401 11.2247C3.97547 11.4025 4.06278 11.5658 4.19097 11.694C4.31917 11.8222 4.48251 11.9095 4.66032 11.9449C4.83814 11.9803 5.02245 11.9621 5.18995 11.8927C5.35745 11.8234 5.50061 11.7059 5.60134 11.5551C5.70206 11.4044 5.75582 11.2272 5.75582 11.0459C5.76204 10.9217 5.74293 10.7975 5.69965 10.681C5.65638 10.5644 5.58984 10.4579 5.5041 10.3678C5.41835 10.2778 5.31518 10.2062 5.20087 10.1572C5.08656 10.1083 4.96349 10.0832 4.83916 10.0834V10.1292ZM10.3392 4.62919C10.1579 4.62919 9.98063 4.68295 9.82988 4.78368C9.67914 4.8844 9.56165 5.02757 9.49227 5.19507C9.42288 5.36256 9.40473 5.54688 9.4401 5.72469C9.47547 5.90251 9.56278 6.06584 9.69097 6.19404C9.81917 6.32224 9.98251 6.40954 10.1603 6.44491C10.3381 6.48028 10.5224 6.46213 10.6899 6.39275C10.8574 6.32337 11.0006 6.20588 11.1013 6.05513C11.2021 5.90439 11.2558 5.72716 11.2558 5.54586C11.262 5.42168 11.2429 5.29753 11.1997 5.18097C11.1564 5.06441 11.0898 4.95788 11.0041 4.86784C10.9183 4.77781 10.8152 4.70616 10.7009 4.65725C10.5866 4.60834 10.4635 4.5832 10.3392 4.58336V4.62919ZM13.5842 6.50836C13.4554 6.63634 13.3676 6.79966 13.3318 6.97763C13.2959 7.15559 13.3138 7.34018 13.383 7.508C13.4522 7.67582 13.5697 7.8193 13.7206 7.92027C13.8714 8.02123 14.0489 8.07513 14.2304 8.07513C14.4119 8.07513 14.5894 8.02123 14.7402 7.92027C14.8911 7.8193 15.0086 7.67582 15.0778 7.508C15.147 7.34018 15.1649 7.15559 15.1291 6.97763C15.0932 6.79966 15.0054 6.63634 14.8767 6.50836C14.711 6.3314 14.4821 6.22723 14.2399 6.21865C13.9976 6.21006 13.7619 6.29774 13.5842 6.46253V6.50836ZM19.3592 6.50836C18.5211 4.83296 17.2329 3.42416 15.6389 2.43992C14.045 1.45568 12.2084 0.934918 10.3351 0.936037C8.46181 0.937156 6.62585 1.46011 5.03311 2.44626C3.44037 3.4324 2.15383 4.84275 1.31776 6.51914C0.481695 8.19553 0.129157 10.0717 0.299679 11.9372C0.470202 13.8028 1.15704 15.5839 2.28318 17.0809C3.40932 18.578 4.93023 19.7317 6.67537 20.4128C8.4205 21.0938 10.3208 21.2752 12.1633 20.9367C12.6266 20.8495 13.0679 20.6708 13.4614 20.4112C13.8549 20.1515 14.1927 19.8159 14.455 19.4242C14.7376 18.9983 14.9327 18.5204 15.0287 18.0183C15.1247 17.5163 15.1197 17.0002 15.0142 16.5C14.9564 16.1978 14.9258 15.891 14.9225 15.5834C14.9265 14.6951 15.1886 13.8271 15.6768 13.085C16.165 12.3429 16.8584 11.7587 17.6725 11.4034C18.1115 11.2068 18.5055 10.9224 18.8303 10.5677C19.155 10.2129 19.4037 9.79541 19.5608 9.34086C19.7198 8.87637 19.7838 8.38469 19.7492 7.89498C19.7145 7.40528 19.5819 6.92751 19.3592 6.49003V6.50836ZM17.8008 8.74502C17.7226 8.9644 17.6012 9.16586 17.4437 9.33748C17.2863 9.5091 17.096 9.6474 16.8842 9.74419C15.7566 10.2489 14.7988 11.0684 14.1256 12.1042C13.4524 13.1399 13.0925 14.348 13.0892 15.5834C13.0905 16.0143 13.1335 16.444 13.2175 16.8667C13.2735 17.125 13.2772 17.3919 13.2284 17.6517C13.1796 17.9114 13.0792 18.1588 12.9333 18.3792C12.8099 18.5721 12.6474 18.7369 12.4564 18.8632C12.2653 18.9895 12.05 19.0745 11.8242 19.1125C11.3345 19.2045 10.8374 19.2506 10.3392 19.25C9.23381 19.2506 8.13963 19.029 7.12159 18.5984C6.10354 18.1679 5.18241 17.5371 4.41287 16.7436C3.64333 15.9502 3.0411 15.0101 2.64192 13.9794C2.24274 12.9486 2.05477 11.8482 2.08915 10.7434C2.1603 8.68342 2.99574 6.72373 4.43273 5.24607C5.86972 3.76841 7.80534 2.87862 9.86249 2.75003H10.33C11.8661 2.75041 13.3716 3.17965 14.6769 3.98942C15.9823 4.79918 17.0356 5.9573 17.7183 7.33336C17.9285 7.76876 17.9581 8.26954 17.8008 8.72669V8.74502ZM10.3392 10.0834C10.1579 10.0834 9.98063 10.1371 9.82988 10.2378C9.67914 10.3386 9.56165 10.4817 9.49227 10.6492C9.42288 10.8167 9.40473 11.001 9.4401 11.1789C9.47547 11.3567 9.56278 11.52 9.69097 11.6482C9.81917 11.7764 9.98251 11.8637 10.1603 11.8991C10.3381 11.9344 10.5224 11.9163 10.6899 11.8469C10.8574 11.7775 11.0006 11.66 11.1013 11.5093C11.2021 11.3586 11.2558 11.1813 11.2558 11C11.2558 10.7569 11.1592 10.5238 10.9873 10.3518C10.8154 10.1799 10.5823 10.0834 10.3392 10.0834Z" fill="#006AFF"/>
</svg>
