<svg width="22" height="22" viewBox="0 0 22 22" fill="none" xmlns="http://www.w3.org/2000/svg">
<path d="M12.9445 12.9445C13.4603 12.4288 13.75 11.7293 13.75 11C13.75 10.2707 13.4603 9.57118 12.9445 9.05546C12.4288 8.53973 11.7293 8.25 11 8.25C10.2707 8.25 9.57118 8.53973 9.05546 9.05546C8.53973 9.57118 8.25 10.2707 8.25 11C8.25 11.7293 8.53973 12.4288 9.05546 12.9445C9.57118 13.4603 10.2707 13.75 11 13.75C11.7293 13.75 12.4288 13.4603 12.9445 12.9445Z" stroke="#006AFF" stroke-width="2" stroke-linecap="round" stroke-linejoin="round"/>
<path d="M2.25317 11C3.42101 7.28108 6.89609 4.58333 11 4.58333C15.1048 4.58333 18.579 7.28108 19.7468 11C18.579 14.7189 15.1048 17.4167 11 17.4167C6.89609 17.4167 3.42101 14.7189 2.25317 11Z" stroke="#006AFF" stroke-width="2" stroke-linecap="round" stroke-linejoin="round"/>
</svg>
