<svg width="20" height="20" viewBox="0 0 20 20" fill="none" xmlns="http://www.w3.org/2000/svg">
<path d="M15.8337 4.16633C16.5998 4.93242 17.2075 5.8419 17.6221 6.84284C18.0368 7.84378 18.2501 8.91659 18.2501 10C18.2501 11.0834 18.0368 12.1562 17.6221 13.1572C17.2075 14.1581 16.5998 15.0676 15.8337 15.8337M15.8337 15.8337L13.2405 13.2404M15.8337 15.8337L18.2501 18.25M13.2414 6.75867C13.6671 7.18428 14.0049 7.6896 14.2353 8.24575C14.4657 8.80191 14.5843 9.39801 14.5843 10C14.5843 10.602 14.4657 11.1981 14.2353 11.7542C14.0049 12.3104 13.6671 12.8157 13.2414 13.2413L10.6482 10.6481M10.6482 10.6481C10.7357 10.5635 10.8055 10.4624 10.8536 10.3505C10.9016 10.2387 10.9269 10.1184 10.928 9.9967C10.929 9.87499 10.9058 9.75428 10.8597 9.64163C10.8137 9.52897 10.7456 9.42662 10.6595 9.34056C10.5735 9.25449 10.4711 9.18642 10.3584 9.14033C10.2458 9.09424 10.1251 9.07105 10.0034 9.0721C9.88166 9.07316 9.76137 9.09845 9.64954 9.14649C9.5377 9.19453 9.43655 9.26437 9.35199 9.35192M10.6482 10.6481L9.35199 9.35192M6.75874 13.2413C6.0561 12.5406 5.60105 11.6298 5.46257 10.6472M4.16641 15.8337C3.07944 14.7473 2.31753 13.3788 1.96656 11.8826C1.61559 10.3864 1.68951 8.82194 2.17999 7.3655M9.35199 9.35192L1.75007 1.75" stroke="#006AFF" stroke-width="2" stroke-linecap="round" stroke-linejoin="round"/>
</svg>
