<svg width="20" height="16" viewBox="0 0 20 16" fill="none" xmlns="http://www.w3.org/2000/svg">
<path d="M3.63608 14.364C2.80034 13.5283 2.13739 12.5361 1.68509 11.4442C1.2328 10.3522 1 9.18189 1 7.99999C1 6.81808 1.2328 5.64775 1.68509 4.55581C2.13739 3.46387 2.80034 2.47172 3.63608 1.63599M16.3641 1.63599C17.1998 2.47172 17.8628 3.46387 18.3151 4.55581C18.7674 5.64775 19.0002 6.81808 19.0002 7.99999C19.0002 9.18189 18.7674 10.3522 18.3151 11.4442C17.8628 12.5361 17.1998 13.5283 16.3641 14.364M6.46408 11.535C5.52672 10.5973 5.00015 9.32581 5.00015 7.99999C5.00015 6.67417 5.52672 5.40262 6.46408 4.46499M13.5361 4.46499C14.4734 5.40262 15 6.67417 15 7.99999C15 9.32581 14.4734 10.5973 13.5361 11.535M11.0001 7.99999C11.0001 8.2652 10.8947 8.51956 10.7072 8.70709C10.5196 8.89463 10.2653 8.99999 10.0001 8.99999C9.73486 8.99999 9.48051 8.89463 9.29297 8.70709C9.10544 8.51956 9.00008 8.2652 9.00008 7.99999C9.00008 7.73477 9.10544 7.48042 9.29297 7.29288C9.48051 7.10534 9.73486 6.99999 10.0001 6.99999C10.2653 6.99999 10.5196 7.10534 10.7072 7.29288C10.8947 7.48042 11.0001 7.73477 11.0001 7.99999Z" stroke="#006AFF" stroke-width="2" stroke-linecap="round" stroke-linejoin="round"/>
</svg>
