<svg width="18" height="18" viewBox="0 0 18 18" fill="none" xmlns="http://www.w3.org/2000/svg">
<path d="M15.2001 9.83331C15.0168 9.83331 14.8251 9.77497 14.6418 9.73331C14.2705 9.65149 13.9056 9.54287 13.5501 9.40831C13.1635 9.26766 12.7385 9.27497 12.357 9.42881C11.9755 9.58265 11.6643 9.87217 11.4834 10.2416L11.3001 10.6166C10.4884 10.1651 9.74257 9.60433 9.08342 8.94997C8.42906 8.29082 7.86827 7.54497 7.41675 6.7333L7.76675 6.49997C8.13622 6.31907 8.42573 6.00791 8.57958 5.62638C8.73342 5.24485 8.74073 4.8199 8.60008 4.4333C8.46777 4.07699 8.3592 3.7123 8.27508 3.34164C8.23342 3.1583 8.20008 2.96664 8.17508 2.77497C8.07389 2.18799 7.76644 1.65642 7.3081 1.276C6.84977 0.895585 6.27066 0.691312 5.67508 0.699971H3.17508C2.81594 0.696599 2.46029 0.770649 2.13234 0.91708C1.80439 1.06351 1.51184 1.27888 1.27461 1.54854C1.03738 1.81819 0.861029 2.1358 0.757574 2.47973C0.654119 2.82367 0.625983 3.18585 0.675084 3.54164C1.11903 7.03279 2.71344 10.2765 5.20646 12.7605C7.69948 15.2445 10.949 16.8271 14.4418 17.2583H14.7584C15.3729 17.2592 15.9662 17.0337 16.4251 16.625C16.6887 16.3892 16.8993 16.1001 17.043 15.7769C17.1866 15.4537 17.2601 15.1037 17.2584 14.75V12.25C17.2482 11.6711 17.0374 11.1138 16.662 10.673C16.2866 10.2323 15.7699 9.93549 15.2001 9.83331ZM15.6168 14.8333C15.6166 14.9516 15.5913 15.0686 15.5424 15.1763C15.4935 15.2841 15.4223 15.3802 15.3334 15.4583C15.2403 15.5387 15.1314 15.5988 15.0138 15.6346C14.8961 15.6705 14.7722 15.6814 14.6501 15.6666C11.5292 15.2665 8.63028 13.8387 6.41068 11.6085C4.19108 9.37838 2.77709 6.47275 2.39175 3.34997C2.37849 3.2279 2.39011 3.10441 2.42592 2.98696C2.46173 2.86951 2.52098 2.76054 2.60008 2.66664C2.67818 2.57775 2.7743 2.50651 2.88207 2.45765C2.98983 2.4088 3.10676 2.38345 3.22508 2.3833H5.72508C5.91887 2.37899 6.1081 2.44237 6.2602 2.56253C6.4123 2.68269 6.51776 2.85211 6.55842 3.04164C6.59175 3.26942 6.63342 3.49442 6.68342 3.71664C6.77968 4.15593 6.9078 4.58762 7.06675 5.00831L5.90008 5.54997C5.80033 5.59574 5.7106 5.66076 5.63605 5.7413C5.56149 5.82184 5.50358 5.91632 5.46564 6.0193C5.4277 6.12228 5.41048 6.23175 5.41496 6.34141C5.41944 6.45107 5.44553 6.55876 5.49175 6.6583C6.69108 9.22727 8.75612 11.2923 11.3251 12.4916C11.528 12.575 11.7555 12.575 11.9584 12.4916C12.0623 12.4545 12.1579 12.397 12.2394 12.3226C12.3209 12.2482 12.3869 12.1584 12.4334 12.0583L12.9501 10.8916C13.3809 11.0457 13.8206 11.1737 14.2668 11.275C14.489 11.325 14.714 11.3666 14.9417 11.4C15.1313 11.4406 15.3007 11.5461 15.4209 11.6982C15.541 11.8503 15.6044 12.0395 15.6001 12.2333L15.6168 14.8333Z" fill="white"/>
</svg>
