<svg width="20" height="20" viewBox="0 0 20 20" fill="none" xmlns="http://www.w3.org/2000/svg">
<path d="M10 6.33333V10L12.75 12.75M18.25 10C18.25 11.0834 18.0366 12.1562 17.622 13.1571C17.2074 14.1581 16.5997 15.0675 15.8336 15.8336C15.0675 16.5997 14.1581 17.2074 13.1571 17.622C12.1562 18.0366 11.0834 18.25 10 18.25C8.91659 18.25 7.8438 18.0366 6.84286 17.622C5.84193 17.2074 4.93245 16.5997 4.16637 15.8336C3.40029 15.0675 2.7926 14.1581 2.37799 13.1571C1.96339 12.1562 1.75 11.0834 1.75 10C1.75 7.81196 2.61919 5.71354 4.16637 4.16637C5.71354 2.61919 7.81196 1.75 10 1.75C12.188 1.75 14.2865 2.61919 15.8336 4.16637C17.3808 5.71354 18.25 7.81196 18.25 10Z" stroke="#006AFF" stroke-width="2" stroke-linecap="round" stroke-linejoin="round"/>
</svg>
