<svg width="16" height="20" viewBox="0 0 16 20" fill="none" xmlns="http://www.w3.org/2000/svg">
<path d="M10.5926 8.00939C11.2803 7.32176 11.6666 6.38913 11.6666 5.41667C11.6666 4.44421 11.2803 3.51157 10.5926 2.82394C9.90501 2.13631 8.97238 1.75 7.99992 1.75C7.02746 1.75 6.09483 2.13631 5.40719 2.82394C4.71956 3.51157 4.33325 4.44421 4.33325 5.41667C4.33325 6.38913 4.71956 7.32176 5.40719 8.00939C6.09483 8.69703 7.02746 9.08333 7.99992 9.08333C8.97238 9.08333 9.90501 8.69703 10.5926 8.00939Z" stroke="#006AFF" stroke-width="2" stroke-linecap="round" stroke-linejoin="round"/>
<path d="M3.46265 13.7127C4.66601 12.5094 6.29811 11.8333 7.99992 11.8333C9.70173 11.8333 11.3338 12.5094 12.5372 13.7127C13.7405 14.9161 14.4166 16.5482 14.4166 18.25H1.58325C1.58325 16.5482 2.25929 14.9161 3.46265 13.7127Z" stroke="#006AFF" stroke-width="2" stroke-linecap="round" stroke-linejoin="round"/>
</svg>
