<svg width="20" height="18" viewBox="0 0 20 18" fill="none" xmlns="http://www.w3.org/2000/svg">
<path d="M18.5541 1.02315C18.3168 0.825761 18.0305 0.696396 17.7255 0.64882C17.4206 0.601245 17.1084 0.63724 16.8223 0.752974L1.88821 6.78243C1.56884 6.91384 1.29698 7.13926 1.10871 7.42878C0.920449 7.7183 0.824686 8.05824 0.834134 8.40346C0.843581 8.74868 0.957794 9.08286 1.16161 9.36165C1.36543 9.64045 1.64921 9.85066 1.9753 9.9644L4.99613 11.015L6.67988 16.583C6.70276 16.6574 6.73597 16.7282 6.77853 16.7934C6.78499 16.8034 6.7941 16.8108 6.80096 16.8205C6.85013 16.8891 6.90956 16.9498 6.97715 17.0003C6.99638 17.015 7.01479 17.0287 7.03534 17.0417C7.11445 17.0942 7.20206 17.1326 7.29428 17.1552L7.30414 17.156L7.30974 17.1584C7.36518 17.1697 7.42161 17.1754 7.4782 17.1755C7.48364 17.1755 7.48847 17.1729 7.49386 17.1728C7.57925 17.1713 7.66389 17.1566 7.74477 17.1292C7.76359 17.1228 7.77971 17.1121 7.79797 17.1043C7.85828 17.0793 7.91543 17.0473 7.96821 17.0089C8.01048 16.9732 8.05276 16.9376 8.09506 16.902L10.3469 14.4159L13.7054 17.0176C14.0011 17.2478 14.365 17.3729 14.7398 17.3732C15.1324 17.3727 15.513 17.2373 15.8176 16.9895C16.1222 16.7418 16.3324 16.3968 16.413 16.0125L19.1319 2.66541C19.1935 2.36501 19.1723 2.05351 19.0705 1.76423C18.9687 1.47496 18.7902 1.2188 18.5541 1.02315ZM7.80863 11.2803C7.69308 11.3954 7.61409 11.5421 7.58158 11.7019L7.32365 12.9552L6.67027 10.7943L10.058 9.03018L7.80863 11.2803ZM14.7268 15.7L10.7578 12.6255C10.5918 12.4972 10.3835 12.4362 10.1745 12.4546C9.96542 12.473 9.77099 12.5694 9.62991 12.7248L8.90874 13.5208L9.1636 12.2821L15.0661 6.37958C15.207 6.23888 15.2928 6.05237 15.3081 5.85384C15.3233 5.65532 15.2669 5.45789 15.1492 5.29734C15.0314 5.13678 14.8601 5.02371 14.6661 4.9786C14.4722 4.9335 14.2685 4.95934 14.092 5.05145L5.62092 9.46198L2.51729 8.32622L17.4994 2.33254L14.7268 15.7Z" fill="white"/>
</svg>
