<svg width="18" height="18" viewBox="0 0 18 18" fill="none" xmlns="http://www.w3.org/2000/svg">
<path d="M13.4498 3.55008C13.2521 3.55008 13.0587 3.60873 12.8943 3.71861C12.7298 3.82849 12.6016 3.98467 12.526 4.1674C12.4503 4.35012 12.4305 4.55119 12.4691 4.74517C12.5076 4.93915 12.6029 5.11734 12.7427 5.25719C12.8826 5.39704 13.0608 5.49228 13.2547 5.53087C13.4487 5.56945 13.6498 5.54965 13.8325 5.47396C14.0152 5.39827 14.1714 5.2701 14.2813 5.10565C14.3912 4.9412 14.4498 4.74786 14.4498 4.55008C14.4498 4.28486 14.3445 4.03051 14.1569 3.84297C13.9694 3.65544 13.7151 3.55008 13.4498 3.55008ZM17.2832 5.56675C17.267 4.87533 17.1375 4.19125 16.8998 3.54175C16.6879 2.98603 16.3582 2.48281 15.9332 2.06675C15.5205 1.6396 15.0161 1.3119 14.4582 1.10841C13.8104 0.863549 13.1255 0.73109 12.4332 0.716748C11.5498 0.666748 11.2665 0.666748 8.99984 0.666748C6.73317 0.666748 6.44984 0.666748 5.5665 0.716748C4.87413 0.73109 4.18929 0.863549 3.5415 1.10841C2.98457 1.31396 2.48062 1.64138 2.0665 2.06675C1.63936 2.4794 1.31165 2.98378 1.10817 3.54175C0.863305 4.18953 0.730846 4.87438 0.716504 5.56675C0.666504 6.45008 0.666504 6.73342 0.666504 9.00008C0.666504 11.2667 0.666504 11.5501 0.716504 12.4334C0.730846 13.1258 0.863305 13.8106 1.10817 14.4584C1.31165 15.0164 1.63936 15.5208 2.0665 15.9334C2.48062 16.3588 2.98457 16.6862 3.5415 16.8917C4.18929 17.1366 4.87413 17.2691 5.5665 17.2834C6.44984 17.3334 6.73317 17.3334 8.99984 17.3334C11.2665 17.3334 11.5498 17.3334 12.4332 17.2834C13.1255 17.2691 13.8104 17.1366 14.4582 16.8917C15.0161 16.6883 15.5205 16.3606 15.9332 15.9334C16.36 15.5189 16.6901 15.0152 16.8998 14.4584C17.1375 13.8089 17.267 13.1248 17.2832 12.4334C17.2832 11.5501 17.3332 11.2667 17.3332 9.00008C17.3332 6.73342 17.3332 6.45008 17.2832 5.56675ZM15.7832 12.3334C15.7771 12.8624 15.6813 13.3865 15.4998 13.8834C15.3668 14.2461 15.1531 14.5738 14.8748 14.8417C14.6045 15.1172 14.2775 15.3304 13.9165 15.4667C13.4196 15.6482 12.8955 15.744 12.3665 15.7501C11.5332 15.7917 11.2248 15.8001 9.03317 15.8001C6.8415 15.8001 6.53317 15.8001 5.69984 15.7501C5.15058 15.7604 4.60367 15.6758 4.08317 15.5001C3.73799 15.3568 3.42597 15.1441 3.1665 14.8751C2.88991 14.6074 2.67887 14.2794 2.54984 13.9167C2.34638 13.4127 2.23354 12.8767 2.2165 12.3334C2.2165 11.5001 2.1665 11.1917 2.1665 9.00008C2.1665 6.80841 2.1665 6.50008 2.2165 5.66675C2.22024 5.12596 2.31896 4.59004 2.50817 4.08341C2.65488 3.73167 2.88006 3.41813 3.1665 3.16675C3.41968 2.88022 3.73258 2.65266 4.08317 2.50008C4.59113 2.31678 5.1265 2.22098 5.6665 2.21675C6.49984 2.21675 6.80817 2.16675 8.99984 2.16675C11.1915 2.16675 11.4998 2.16675 12.3332 2.21675C12.8621 2.22282 13.3863 2.31862 13.8832 2.50008C14.2619 2.64062 14.6017 2.86912 14.8748 3.16675C15.1479 3.42273 15.3613 3.73569 15.4998 4.08341C15.685 4.59086 15.7809 5.12656 15.7832 5.66675C15.8248 6.50008 15.8332 6.80841 15.8332 9.00008C15.8332 11.1917 15.8248 11.5001 15.7832 12.3334ZM8.99984 4.72508C8.15468 4.72673 7.32897 4.97885 6.62705 5.4496C5.92513 5.92034 5.37849 6.58858 5.0562 7.36988C4.73391 8.15117 4.65044 9.01047 4.81633 9.83919C4.98222 10.6679 5.39003 11.4289 5.98823 12.0259C6.58643 12.6229 7.34818 13.0293 8.17722 13.1935C9.00626 13.3578 9.86539 13.2727 10.6461 12.9489C11.4267 12.6251 12.0939 12.0771 12.5633 11.3743C13.0327 10.6714 13.2832 9.84524 13.2832 9.00008C13.2843 8.43767 13.1742 7.88059 12.9592 7.36088C12.7442 6.84117 12.4286 6.36909 12.0306 5.97179C11.6325 5.57449 11.1598 5.25981 10.6397 5.04586C10.1195 4.8319 9.56225 4.72288 8.99984 4.72508ZM8.99984 11.7751C8.45099 11.7751 7.91448 11.6123 7.45813 11.3074C7.00178 11.0025 6.6461 10.5691 6.43607 10.062C6.22604 9.55496 6.17108 8.997 6.27816 8.45871C6.38523 7.92041 6.64953 7.42595 7.03762 7.03786C7.42571 6.64977 7.92016 6.38548 8.45846 6.2784C8.99676 6.17133 9.55472 6.22628 10.0618 6.43632C10.5688 6.64635 11.0022 7.00203 11.3072 7.45837C11.6121 7.91472 11.7748 8.45124 11.7748 9.00008C11.7748 9.3645 11.7031 9.72535 11.5636 10.062C11.4241 10.3987 11.2197 10.7046 10.9621 10.9623C10.7044 11.22 10.3985 11.4244 10.0618 11.5638C9.72511 11.7033 9.36426 11.7751 8.99984 11.7751Z" fill="white"/>
</svg>
