<svg width="12" height="20" viewBox="0 0 12 20" fill="none" xmlns="http://www.w3.org/2000/svg">
<path d="M11.6915 7.86658C11.6151 7.75349 11.512 7.66091 11.3914 7.59698C11.2708 7.53304 11.1363 7.49971 10.9998 7.49992H8.49984V5.83325H10.3332C10.5542 5.83325 10.7661 5.74545 10.9224 5.58917C11.0787 5.43289 11.1665 5.22093 11.1665 4.99992V1.66659C11.1665 1.44557 11.0787 1.23361 10.9224 1.07733C10.7661 0.921049 10.5542 0.833252 10.3332 0.833252H7.6665C6.38462 0.833252 5.15525 1.34248 4.24882 2.2489C3.3424 3.15533 2.83317 4.38471 2.83317 5.66658V7.49992H0.999837C0.778823 7.49992 0.566862 7.58772 0.410582 7.744C0.254301 7.90028 0.166504 8.11224 0.166504 8.33325V11.6666C0.166504 11.8876 0.254301 12.0996 0.410582 12.2558C0.566862 12.4121 0.778823 12.4999 0.999837 12.4999H2.83317V18.3333C2.83317 18.5543 2.92097 18.7662 3.07725 18.9225C3.23353 19.0788 3.44549 19.1666 3.6665 19.1666H7.6665C7.88752 19.1666 8.09948 19.0788 8.25576 18.9225C8.41204 18.7662 8.49984 18.5543 8.49984 18.3333V12.4999H9.6665C9.8334 12.5001 9.99651 12.4501 10.1347 12.3565C10.2729 12.2629 10.3798 12.13 10.4415 11.9749L11.7748 8.64158C11.8252 8.5154 11.8439 8.37882 11.8294 8.24374C11.8148 8.10866 11.7675 7.97919 11.6915 7.86658ZM9.09984 10.8333H7.6665C7.44549 10.8333 7.23353 10.921 7.07725 11.0773C6.92097 11.2336 6.83317 11.4456 6.83317 11.6666V17.4999H4.49984V11.6666C4.49984 11.4456 4.41204 11.2336 4.25576 11.0773C4.09948 10.921 3.88752 10.8333 3.6665 10.8333H1.83317V9.16658H3.6665C3.88752 9.16658 4.09948 9.07879 4.25576 8.92251C4.41204 8.76623 4.49984 8.55427 4.49984 8.33325V5.66658C4.50204 4.82741 4.83637 4.02323 5.42976 3.42984C6.02315 2.83645 6.82733 2.50212 7.6665 2.49992H9.49984V4.16658H8.83317C8.55102 4.12548 8.26343 4.14273 7.98822 4.21727C7.713 4.29181 7.45602 4.42204 7.23317 4.59992C7.09794 4.7415 6.99278 4.909 6.92403 5.09232C6.85528 5.27565 6.82438 5.47099 6.83317 5.66658V8.33325C6.83317 8.55427 6.92097 8.76623 7.07725 8.92251C7.23353 9.07879 7.44549 9.16658 7.6665 9.16658H9.7665L9.09984 10.8333Z" fill="white"/>
</svg>
